<?xml version="1.0" encoding="utf-8"?>
<!-- Generator: Adobe Illustrator 24.0.0, SVG Export Plug-In . SVG Version: 6.00 Build 0)  -->
<svg version="1.1" id="Layer_1" xmlns="http://www.w3.org/2000/svg" xmlns:xlink="http://www.w3.org/1999/xlink" x="0px" y="0px"
	 viewBox="0 0 100 100" style="enable-background:new 0 0 100 100;" xml:space="preserve">
<style type="text/css">
	.st0{fill:#A32638;}
</style>
<path class="st0" d="M80.8,62.1h15.3V51.9h-9.9L80.8,62.1"/>
<path class="st0" d="M68.8,46.8V36.5H50.4v10.3H68.8z"/>
<path class="st0" d="M60.6,24.2v-2.1h-2.1v2.1H60.6z"/>
<path class="st0" d="M26.1,56l14.2-44l20.3,8.1v-2.1L34,4.8L8.7,56L26.1,56"/>
<path class="st0" d="M87.6,90.9c-3,0-5.9-0.6-8.5-1.8c-1.4-0.6-2.8-1.4-4-2.3c-1.2,0.9-2.6,1.7-4,2.3c-2.6,1.2-5.5,1.8-8.5,1.8
	s-5.9-0.6-8.5-1.8c-1.4-0.6-2.8-1.4-4-2.3c-1.2,0.9-2.6,1.7-4,2.3c-2.6,1.2-5.5,1.8-8.5,1.8c-3,0-5.9-0.6-8.5-1.8
	c-1.4-0.6-2.8-1.4-4-2.3c-1.2,0.9-2.6,1.7-4,2.3c-2.6,1.2-5.5,1.8-8.5,1.8c-4.7,0-9-1.5-12.5-4.1v5.2c3.7,2.1,7.9,3.3,12.5,3.3
	c4.6,0,8.8-1.2,12.5-3.3c3.7,2.1,8,3.3,12.5,3.3c4.5,0,8.8-1.2,12.5-3.3c3.7,2.1,8,3.3,12.5,3.3s8.8-1.2,12.5-3.3
	c3.7,2.1,8,3.3,12.5,3.3c4.5,0,8.7-1.2,12.4-3.3v-5.2C96.5,89.4,92.2,90.9,87.6,90.9z"/>
<path class="st0" d="M78.6,66.2l-3.2,6.1H34.5l-8.4-6.1H0l12.9,20.4c2.9-0.1,5.6-0.7,8.1-1.8c1.4-0.6,2.8-1.4,4-2.3
	c1.2,0.9,2.6,1.7,4,2.3c2.6,1.2,5.5,1.8,8.5,1.8s5.9-0.6,8.5-1.8c1.4-0.6,2.8-1.4,4-2.3c1.2,0.9,2.6,1.7,4,2.3
	c2.6,1.2,5.5,1.8,8.5,1.8c3,0,5.9-0.6,8.5-1.8c1.4-0.6,2.8-1.4,4-2.3c1.2,0.9,2.6,1.7,4,2.3c2.6,1.2,5.5,1.8,8.5,1.8
	c4.6,0,8.9-1.5,12.4-4.1v-2.5V66.2H78.6z"/>
<path class="st0" d="M54,71.4V61.1H35.6v10.3H54z"/>
<path class="st0" d="M74.1,71.4V61.1H55.7v10.3H74.1z"/>
<path class="st0" d="M60.6,28.3v-2.1h-2.1v2.1H60.6z"/>
<path class="st0" d="M60.6,32.4v-2.1h-2.1v2.1H60.6z"/>
<path class="st0" d="M60.6,36.5v-2.1h-2.1v2.1H60.6z"/>
</svg>
